# xmcd
#
# Track frame offsets:
#	150
#	11102
#	25492
#	38902
#	51717
#	63017
#	75745
#	88485
#	101435
#	113092
#	126445
#	138402
#	149327
#	160777
#	173405
#	186390
#	200122
#	213995
#
# Disc length: 3037 seconds
#
# Revision: 1
# Processed by: cddbd v1.5PL3 Copyright (c) Steve Scherf et al.
# Submitted via: CDex 1.50Beta5
#
DISCID=0b0bdb12
DTITLE=Various Artist - 続・栄光のグループ・サウンズ
DYEAR=1900
DGENRE=Pop
TTITLE0=僕のマリー
TTITLE1=銀河のロマンス
TTITLE2=ガール・フレンド
TTITLE3=スワンの涙
TTITLE4=愛するアニタ
TTITLE5=マリアの泉
TTITLE6=草原の輝き
TTITLE7=いとしのジザベル
TTITLE8=本牧ブルース
TTITLE9=キサナドゥーの伝説
TTITLE10=恋をしようよジェニー
TTITLE11=遠い渚
TTITLE12=愛のリメンバー
TTITLE13=マイ・ラブ、マイ・ラブ
TTITLE14=銀の鎖
TTITLE15=初恋の丘
TTITLE16=シリウスの涙
TTITLE17=あなたが欲しい
EXTD=
EXTT0=
EXTT1=
EXTT2=
EXTT3=
EXTT4=
EXTT5=
EXTT6=
EXTT7=
EXTT8=
EXTT9=
EXTT10=
EXTT11=
EXTT12=
EXTT13=
EXTT14=
EXTT15=
EXTT16=
EXTT17=
PLAYORDER=
